<?xml version="1.0" encoding="utf-8" standalone="no"?>
<svg version="1.0" xmlns="http://www.w3.org/2000/svg" width="187.000000pt" height="99.000000pt" viewBox="0 0 187.000000 99.000000" preserveAspectRatio="xMidYMid meet">
  <g transform="translate(0.000000,99.000000) scale(0.100000,-0.100000)" fill="#000000" stroke="none">
    <path d="M483 870 c-204 -41 -375 -78 -379 -82 -14 -14 773 -382 834 -391 24 -3 839 337 816 341 -19 4 -369 85 -634 147 -294 69 -214 71 -637 -15z"/>
    <path d="M42 680 l3 -85 65 -43 c61 -40 558 -339 715 -430 l70 -40 5 136 c3 76 3 140 0 143 -3 4 -97 46 -210 95 -113 49 -305 139 -428 199 l-223 110 3 -85z"/>
  </g>
</svg>
